<?xml version="1.0" standalone="no"?>
<!DOCTYPE svg PUBLIC "-//W3C//DTD SVG 20010904//EN"
 "http://www.w3.org/TR/2001/REC-SVG-20010904/DTD/svg10.dtd">
<svg version="1.0" xmlns="http://www.w3.org/2000/svg"
 width="1024.000000pt" height="1024.000000pt" viewBox="0 0 1024.000000 1024.000000"
 preserveAspectRatio="xMidYMid meet">
<metadata>
Created by potrace 1.14, written by Peter Selinger 2001-2017
</metadata>
<g transform="translate(0.000000,1024.000000) scale(0.100000,-0.100000)"
fill="#000000" stroke="none">
<path d="M3037 9234 c-2 -2 -50 -5 -107 -8 -136 -6 -335 -21 -335 -26 0 -1
-13 -3 -30 -4 -16 -2 -50 -6 -75 -11 -25 -4 -54 -8 -65 -10 -11 -1 -20 -3 -20
-4 0 -1 -15 -4 -34 -7 -18 -2 -59 -12 -90 -21 -31 -9 -58 -17 -61 -18 -3 0
-11 -4 -17 -8 -7 -5 -13 -6 -13 -2 0 3 -10 0 -22 -7 -13 -7 -27 -11 -31 -10
-4 1 -18 -4 -30 -13 -12 -8 -29 -15 -39 -15 -10 0 -18 -4 -18 -10 0 -5 -7 -10
-15 -10 -14 0 -61 -25 -75 -40 -3 -3 -12 -6 -20 -8 -8 -2 -16 -8 -18 -13 -2
-5 -10 -9 -18 -9 -8 0 -24 -9 -36 -20 -12 -11 -28 -20 -35 -20 -7 0 -13 -4
-13 -9 0 -5 -8 -12 -17 -15 -10 -3 -31 -17 -48 -31 -41 -34 -44 -36 -97 -76
-26 -20 -45 -39 -41 -43 3 -3 1 -6 -5 -6 -6 0 -37 -25 -67 -55 -31 -30 -54
-55 -50 -55 3 0 -6 -11 -21 -25 -15 -14 -32 -25 -37 -25 -6 0 -8 -3 -4 -6 3
-3 -7 -20 -23 -38 -17 -17 -30 -36 -30 -43 0 -6 -4 -13 -8 -15 -4 -1 -23 -25
-42 -53 -19 -27 -38 -52 -41 -55 -3 -3 -19 -30 -35 -60 -16 -30 -32 -56 -36
-58 -5 -2 -8 -12 -8 -22 0 -10 -6 -25 -13 -32 -16 -17 -50 -94 -50 -113 0 -8
-4 -15 -8 -15 -4 0 -10 -16 -13 -35 -4 -19 -11 -35 -16 -35 -4 0 -6 -9 -3 -20
3 -11 1 -20 -4 -20 -5 0 -9 -8 -9 -17 -1 -10 -4 -29 -7 -43 -15 -57 -37 -178
-41 -220 -2 -25 -5 -47 -7 -50 -5 -11 -7 -27 -8 -73 -1 -36 -4 -46 -13 -41
-10 6 -10 4 -2 -7 6 -8 10 -23 8 -34 -2 -11 -6 -78 -9 -150 -4 -86 -9 -132
-18 -137 -9 -6 -9 -8 1 -8 16 0 16 -57 0 -63 -10 -4 -10 -6 0 -6 6 -1 12 -6
12 -12 0 -5 -6 -7 -12 -3 -9 5 -9 2 1 -9 10 -13 11 -20 2 -31 -9 -11 -9 -15 1
-19 10 -4 10 -7 -1 -15 -11 -8 -11 -10 0 -14 12 -4 12 -7 0 -21 -7 -10 -9 -17
-4 -17 5 0 9 -15 9 -34 0 -19 -4 -32 -8 -30 -5 3 -8 0 -8 -5 0 -6 4 -11 8 -11
9 0 7 -53 -3 -69 -3 -6 -2 -11 3 -11 6 0 7 -14 2 -35 -4 -19 -4 -35 1 -35 5 0
5 -10 0 -23 -5 -13 -6 -30 -1 -37 4 -7 4 -25 0 -40 -4 -15 -4 -33 0 -40 5 -7
4 -24 -1 -37 -6 -16 -5 -32 2 -45 7 -13 7 -24 1 -30 -5 -5 -6 -24 -2 -41 4
-18 4 -41 0 -52 -4 -11 -5 -24 -3 -28 8 -13 9 -128 1 -133 -3 -2 -3 -17 1 -32
5 -15 5 -37 1 -48 -5 -11 -5 -26 -1 -33 11 -17 1 -62 -11 -55 -6 4 -2 -6 7
-20 12 -19 15 -30 8 -37 -6 -6 -8 -24 -3 -42 4 -18 4 -41 0 -52 -4 -11 -5 -26
-2 -33 4 -13 6 -110 2 -124 -6 -20 -6 -34 1 -43 4 -5 4 -28 0 -51 -4 -22 -4
-50 0 -62 5 -12 4 -24 -2 -28 -6 -4 -7 -10 0 -17 5 -7 6 -29 2 -53 -4 -22 -4
-50 0 -61 9 -26 0 -65 -13 -57 -6 4 -2 -5 7 -20 11 -16 13 -26 6 -26 -9 0 -9
-5 0 -21 7 -14 7 -25 1 -31 -5 -5 -6 -24 -2 -42 4 -17 4 -41 -1 -52 -4 -12 -4
-26 0 -33 11 -17 1 -62 -11 -55 -6 4 -2 -6 7 -20 12 -19 15 -30 8 -37 -6 -6
-8 -24 -3 -42 4 -18 4 -41 0 -52 -4 -11 -5 -26 -2 -33 4 -13 6 -110 2 -124 -6
-20 -6 -34 1 -43 4 -5 4 -28 0 -51 -4 -22 -4 -50 0 -62 5 -12 4 -24 -2 -28 -6
-4 -7 -10 0 -17 5 -7 6 -29 2 -53 -4 -22 -4 -50 0 -62 5 -14 4 -22 -2 -22 -6
0 -7 -5 -4 -10 9 -15 12 -131 3 -136 -3 -2 -3 -17 1 -32 5 -15 5 -37 1 -48 -5
-11 -5 -26 -1 -33 11 -17 1 -62 -11 -55 -6 4 -2 -6 7 -20 12 -19 15 -30 8 -37
-6 -6 -8 -24 -3 -42 4 -18 4 -41 0 -52 -4 -11 -5 -23 -3 -28 7 -12 9 -128 2
-133 -4 -2 -4 -16 -2 -31 4 -27 4 -40 2 -65 -1 -7 0 -17 1 -23 6 -25 -1 -56
-11 -49 -6 3 -3 -5 6 -20 11 -17 14 -30 8 -39 -5 -6 -8 -23 -6 -37 2 -14 3
-34 3 -45 -1 -21 -1 -22 3 -87 1 -24 -2 -49 -7 -55 -5 -7 -5 -13 0 -13 10 0
11 -51 1 -67 -4 -6 -4 -13 0 -17 11 -11 10 -170 -1 -185 -8 -11 -8 -13 0 -8 8
4 12 -20 13 -81 2 -135 10 -263 16 -273 4 -5 1 -9 -6 -9 -7 0 -8 -4 -2 -12 5
-7 11 -26 12 -43 5 -58 9 -90 10 -90 1 0 4 -25 6 -55 7 -79 11 -106 19 -118 3
-5 0 -13 -6 -15 -8 -3 -5 -6 6 -6 15 -1 16 -4 6 -16 -7 -8 -8 -15 -3 -15 5 0
9 -8 10 -17 3 -38 38 -158 48 -165 5 -4 7 -8 3 -8 -4 0 1 -20 12 -44 10 -24
16 -47 13 -50 -4 -3 -1 -6 6 -6 7 0 9 -5 6 -10 -3 -6 -2 -10 4 -10 9 0 27 -57
23 -73 -2 -5 2 -6 7 -2 10 5 46 -61 43 -77 -1 -5 3 -8 9 -8 5 0 7 -4 4 -10 -3
-5 -1 -10 4 -10 6 0 11 -6 11 -14 0 -8 7 -16 15 -20 8 -3 15 -12 15 -21 0 -8
4 -15 9 -15 17 0 42 -62 31 -75 -7 -8 -5 -12 5 -12 8 0 12 4 9 9 -3 4 0 8 5 8
6 0 11 -10 11 -22 0 -12 3 -19 6 -15 4 3 13 -1 22 -10 13 -13 14 -18 2 -37
-12 -19 -12 -20 3 -8 14 12 19 12 32 -1 8 -9 15 -18 15 -22 0 -3 14 -19 31
-35 20 -18 28 -33 24 -41 -5 -7 -4 -10 2 -6 15 9 56 -29 47 -44 -4 -8 -3 -9 4
-5 7 4 12 2 12 -4 0 -6 4 -9 9 -5 6 3 15 -4 21 -15 6 -11 16 -18 22 -14 6 4 8
-2 4 -17 -3 -13 -3 -18 0 -11 3 6 10 12 15 12 6 0 7 -4 4 -10 -3 -5 1 -10 10
-10 9 0 13 -5 10 -10 -3 -5 -2 -10 4 -10 14 0 101 -62 101 -72 0 -4 6 -8 13
-8 7 0 22 -8 33 -18 10 -10 27 -21 37 -25 9 -3 17 -11 17 -16 0 -6 7 -8 15 -5
8 4 15 1 15 -5 0 -6 7 -11 15 -11 8 0 15 -4 15 -9 0 -8 37 -24 53 -22 4 1 7
-3 7 -8 0 -8 37 -24 53 -22 4 1 7 -3 7 -9 0 -5 7 -10 15 -10 8 0 15 -5 15 -12
0 -6 3 -9 6 -5 3 3 28 -3 54 -13 26 -10 51 -16 54 -13 3 4 6 1 6 -5 0 -7 6
-11 13 -10 6 2 11 -3 9 -11 -3 -12 -1 -12 14 -1 14 12 18 12 29 -3 9 -12 15
-15 20 -7 5 8 10 8 20 0 8 -7 19 -9 25 -5 5 3 10 2 10 -2 0 -8 23 -13 68 -16
6 0 12 -3 12 -6 0 -3 21 -7 48 -9 26 -1 56 -4 67 -6 11 -3 26 -5 33 -5 7 -1
10 -5 7 -11 -3 -6 1 -7 9 -4 9 3 13 11 9 18 -3 6 -1 6 8 -1 7 -7 35 -13 61
-13 27 0 48 -5 48 -11 0 -6 5 -7 13 -2 6 4 32 6 57 4 25 -2 60 -4 77 -5 18 0
33 -5 33 -9 0 -5 5 -5 12 -1 18 11 90 4 107 -9 12 -9 13 -9 8 0 -10 16 65 15
75 -1 5 -8 8 -7 8 2 0 6 5 12 11 12 5 0 7 -6 3 -12 -5 -9 -2 -9 9 1 14 11 17
11 17 0 0 -9 3 -10 8 -4 9 12 122 14 122 1 0 -4 6 -4 13 2 8 7 18 7 27 2 8 -5
19 -6 24 -2 16 9 46 10 46 0 0 -5 8 -4 19 1 10 6 21 7 25 4 10 -10 36 -12 36
-3 0 5 8 7 18 5 9 -2 27 -4 40 -4 16 -1 21 -5 16 -13 -6 -10 -5 -10 8 -1 8 7
18 10 21 6 4 -3 7 -1 7 7 0 10 3 10 14 1 8 -7 17 -8 20 -3 3 5 17 7 31 5 15
-3 22 -10 18 -17 -4 -6 1 -5 10 3 9 7 17 10 17 5 0 -5 5 -2 10 6 7 11 10 11
10 2 0 -7 5 -10 11 -7 16 10 59 13 59 4 0 -4 10 -6 23 -3 18 3 168 7 215 5 8
-1 10 -6 6 -13 -6 -10 -5 -10 8 -1 8 7 18 10 21 6 4 -3 7 -1 7 7 0 10 3 10 14
1 9 -8 16 -8 20 -2 4 7 15 7 30 1 13 -5 26 -6 29 -4 7 8 263 7 275 0 6 -3 13
0 15 6 4 10 6 10 6 0 1 -7 5 -10 11 -7 5 3 49 6 97 6 119 0 115 1 107 -13 -6
-10 -5 -10 8 -1 8 7 18 10 21 6 4 -3 7 -1 7 7 0 10 3 10 14 1 9 -8 16 -8 20
-2 4 7 15 7 30 1 13 -5 26 -6 29 -4 7 8 263 7 275 0 6 -3 13 0 15 6 3 8 6 9 6
2 1 -11 53 -10 70 0 4 3 20 -1 35 -9 14 -8 24 -10 21 -5 -4 6 6 10 22 11 28 0
211 0 226 -1 5 0 5 -6 1 -12 -6 -10 -5 -10 8 -1 8 7 18 10 21 6 4 -3 7 -1 7 7
0 10 3 10 14 1 8 -7 17 -8 20 -3 3 5 17 7 31 5 15 -3 22 -10 18 -17 -4 -6 1
-5 10 3 9 7 17 10 17 5 0 -5 5 -2 10 6 7 11 10 11 10 2 0 -7 5 -10 11 -7 15
10 59 13 59 5 0 -4 21 -6 46 -3 29 2 52 -1 62 -9 12 -10 14 -10 8 0 -5 8 1 12
21 13 15 0 36 2 46 4 9 2 17 -1 17 -5 0 -5 12 -7 26 -4 14 3 33 -1 42 -8 12
-10 14 -10 8 0 -5 8 1 12 21 13 15 0 36 2 46 4 9 2 17 -1 17 -5 0 -8 45 -4 60
5 4 2 19 -2 34 -10 14 -8 24 -10 21 -5 -7 11 -4 11 187 11 76 1 142 -2 147 -5
5 -3 12 0 14 6 4 10 6 10 6 0 1 -7 5 -11 10 -8 11 7 75 9 113 3 14 -2 32 -1
39 4 8 4 19 3 26 -3 7 -6 13 -6 13 -1 0 10 46 10 56 0 4 -3 14 -3 23 1 20 9
52 8 68 -1 6 -4 14 -3 18 2 4 7 15 7 30 1 18 -7 25 -6 25 3 0 8 3 7 9 -3 6 -8
8 -17 6 -20 -2 -4 3 -7 11 -7 10 0 11 4 4 11 -5 5 -10 13 -10 16 0 10 135 6
142 -5 5 -7 8 -6 8 1 0 14 31 14 49 0 11 -8 13 -8 7 2 -4 7 -1 12 9 12 10 0
14 -5 9 -12 -6 -11 -4 -11 7 0 17 16 32 16 23 0 -6 -10 -5 -10 7 -1 17 14 130
20 149 8 8 -5 11 -4 7 2 -4 6 24 9 78 9 71 -1 82 1 72 13 -10 12 -9 13 7 4 11
-6 31 -8 45 -4 14 4 45 6 69 6 23 0 42 4 42 10 0 5 5 3 10 -5 8 -12 10 -12 10
-1 0 9 9 12 29 9 17 -2 28 -1 25 4 -3 4 2 8 11 8 12 0 15 -5 11 -17 -5 -15 -3
-14 11 3 10 11 33 21 53 23 19 2 41 8 49 14 12 10 13 9 6 -2 -6 -11 -3 -11 14
2 13 8 29 13 36 11 7 -3 16 0 20 5 3 6 11 9 16 6 5 -4 9 -3 9 2 0 4 14 9 30
10 21 2 28 -1 24 -9 -4 -7 -3 -8 5 -4 6 4 9 12 6 17 -4 5 0 9 9 9 8 0 17 -6
20 -12 3 -7 4 -5 3 6 -1 13 5 20 23 23 13 2 28 9 32 16 4 6 13 12 20 12 7 1
26 7 41 13 16 7 33 9 39 6 6 -4 8 -2 5 3 -4 6 1 17 10 24 12 10 14 10 9 1 -4
-6 -2 -12 3 -12 6 0 11 6 11 14 0 12 17 21 44 24 5 0 12 4 15 9 11 17 104 76
96 62 -4 -8 4 -1 17 15 14 17 30 26 36 22 7 -4 12 -1 12 7 0 8 12 22 26 32 27
18 71 54 108 90 12 11 24 19 29 17 4 -1 7 3 7 9 0 6 11 20 25 31 14 11 23 24
20 29 -4 5 1 9 9 9 9 0 16 5 16 11 0 6 7 9 14 6 9 -4 13 -1 10 6 -2 7 9 26 26
44 16 18 30 37 30 42 0 6 4 11 10 11 5 0 27 25 47 56 21 31 39 51 41 45 2 -6
8 -11 14 -11 6 0 5 7 -3 16 -11 14 -11 18 1 28 8 6 16 18 18 26 2 8 10 19 18
23 8 4 14 14 14 22 0 8 13 36 29 63 16 27 32 59 36 71 6 19 9 20 23 9 15 -11
15 -11 4 3 -16 21 1 74 20 63 9 -5 9 -2 -1 9 -9 12 -10 17 -2 17 7 0 10 4 7 8
-3 5 2 21 10 36 7 16 14 37 14 48 0 12 4 17 12 12 6 -4 8 -3 4 4 -6 9 -2 31
20 127 13 56 17 72 19 95 1 15 7 24 15 22 10 -2 11 0 2 11 -6 7 -9 24 -6 38 7
35 15 109 14 146 0 17 4 34 10 38 7 4 7 12 0 24 -5 10 -7 21 -4 24 5 5 12 123
17 312 1 39 6 75 10 82 4 6 3 14 -1 17 -5 3 -8 25 -7 48 1 31 5 42 16 40 11
-2 11 0 -1 10 -20 17 -19 115 1 110 10 -3 9 2 -3 15 -21 23 -21 23 -9 55 6 15
6 30 2 33 -5 3 -5 20 -1 39 4 18 3 40 -1 49 -6 10 -5 18 1 22 8 5 8 11 1 19
-7 8 -7 24 -2 43 5 17 6 36 2 42 -4 7 -5 32 -1 56 4 24 3 49 -1 56 -4 6 -3 24
1 39 4 15 4 34 -1 43 -6 10 -5 18 1 22 8 5 8 11 1 19 -7 8 -7 24 -2 43 5 17 5
36 1 44 -5 7 -7 16 -5 19 4 6 5 37 5 125 0 22 1 47 1 55 0 8 -2 27 -5 43 -2
15 -1 27 4 27 4 0 5 15 0 33 -4 18 -3 43 1 55 5 12 5 24 0 26 -4 3 -6 19 -3
35 2 17 9 28 14 25 6 -4 2 5 -7 20 -11 17 -14 30 -8 39 10 13 10 54 0 63 -3 3
-2 16 3 29 5 13 6 25 3 28 -7 8 -9 127 -2 127 3 0 4 12 2 28 -5 32 -4 105 2
111 2 2 0 12 -5 22 -7 12 -7 20 0 24 7 4 8 11 2 18 -6 7 -7 32 -3 59 4 25 4
53 -1 62 -5 9 -4 17 2 21 7 4 8 11 2 18 -6 7 -7 32 -3 59 4 26 4 53 0 60 -4 7
-3 18 2 24 7 8 6 14 -1 19 -6 4 -9 14 -6 23 7 21 8 77 3 120 -2 19 2 45 9 58
7 14 9 22 4 19 -6 -4 -10 0 -11 7 0 7 -2 21 -4 31 -2 9 0 17 5 17 4 0 5 15 0
33 -4 18 -3 43 1 55 5 12 4 24 0 27 -5 3 -5 20 -1 39 4 18 3 41 -2 50 -5 9 -6
22 -1 29 10 15 10 36 2 63 -4 11 -3 27 2 36 6 10 6 19 0 22 -5 3 -5 21 -1 40
4 19 6 37 4 39 -8 8 -13 47 -6 47 8 0 7 74 -2 89 -4 5 -2 13 4 16 8 5 8 11 1
19 -7 8 -7 24 -2 43 5 17 6 36 2 42 -4 7 -5 32 -1 56 4 24 3 50 -2 59 -5 9 -4
17 2 21 7 4 8 11 2 18 -6 7 -7 32 -3 59 4 26 4 53 0 60 -4 7 -3 18 2 24 7 8 6
14 -1 19 -6 4 -9 14 -6 23 6 20 7 65 3 147 -1 33 1 68 5 78 5 9 5 17 1 17 -4
0 -8 15 -8 34 0 19 4 32 8 29 5 -3 4 3 -2 14 -7 14 -7 23 1 31 8 8 8 12 1 12
-13 0 -12 52 2 62 6 5 5 8 -2 8 -7 0 -13 5 -13 11 0 5 6 7 13 3 9 -6 9 -4 1 7
-12 16 -12 29 0 47 4 7 3 19 -4 27 -7 8 -10 21 -7 29 3 8 1 17 -6 20 -9 3 -9
5 0 5 7 1 10 7 8 14 -2 6 -6 63 -9 124 -3 62 -8 117 -11 123 -3 5 -1 10 5 10
6 0 8 5 3 13 -4 6 -9 39 -10 71 -2 33 -5 61 -8 64 -3 3 1 12 8 20 7 10 8 13 1
9 -16 -9 -25 28 -11 42 8 8 7 11 -2 11 -7 0 -11 8 -10 18 1 9 0 19 -1 22 -1 3
-4 21 -6 40 -6 53 -10 71 -24 120 -8 25 -13 49 -11 54 1 5 -5 26 -13 46 -8 21
-12 40 -9 44 4 3 1 6 -5 6 -7 0 -11 3 -11 8 1 4 0 9 -1 12 -1 3 -3 12 -5 21
-5 30 -65 156 -108 229 -66 111 -72 122 -87 140 -8 10 -22 28 -30 41 -8 13
-25 33 -37 46 -13 13 -23 28 -23 33 0 6 -3 10 -8 10 -4 0 -25 22 -47 49 -21
28 -42 48 -47 45 -4 -3 -8 0 -8 6 0 16 -127 133 -194 179 -12 8 -23 17 -26 20
-3 3 -12 11 -21 16 -10 6 -38 25 -63 43 -26 17 -51 32 -56 32 -4 0 -10 3 -12
8 -3 7 -182 102 -193 103 -2 0 -20 6 -39 14 -20 8 -42 15 -50 15 -8 0 -17 4
-20 9 -3 5 -23 12 -43 17 -21 4 -40 8 -43 9 -3 1 -23 5 -45 10 -56 13 -55 12
-57 15 -2 1 -12 3 -23 4 -11 2 -40 7 -65 11 -25 4 -65 9 -90 10 -25 2 -45 4
-45 5 0 6 -50 10 -295 27 -87 6 -4287 13 -4293 7z"/>
<path d="M1075 2200 c-3 -5 -1 -10 4 -10 6 0 11 5 11 10 0 6 -2 10 -4 10 -3 0
-8 -4 -11 -10z"/>
<path d="M9036 1858 c3 -5 10 -6 15 -3 13 9 11 12 -6 12 -8 0 -12 -4 -9 -9z"/>
<path d="M1193 1845 c0 -8 4 -12 9 -9 5 3 6 10 3 15 -9 13 -12 11 -12 -6z"/>
<path d="M8976 1842 c-3 -5 1 -9 9 -9 8 0 12 4 9 9 -3 4 -7 8 -9 8 -2 0 -6 -4
-9 -8z"/>
<path d="M8827 1639 c7 -7 15 -10 18 -7 3 3 -2 9 -12 12 -14 6 -15 5 -6 -5z"/>
<path d="M8793 1565 c0 -8 4 -12 9 -9 5 3 6 10 3 15 -9 13 -12 11 -12 -6z"/>
<path d="M1570 1459 c0 -5 5 -7 10 -4 6 3 10 8 10 11 0 2 -4 4 -10 4 -5 0 -10
-5 -10 -11z"/>
<path d="M1556 1413 c-6 -14 -5 -15 5 -6 7 7 10 15 7 18 -3 3 -9 -2 -12 -12z"/>
<path d="M8615 1420 c3 -5 8 -10 11 -10 2 0 4 5 4 10 0 6 -5 10 -11 10 -5 0
-7 -4 -4 -10z"/>
<path d="M1655 1380 c-3 -5 -1 -10 4 -10 6 0 11 5 11 10 0 6 -2 10 -4 10 -3 0
-8 -4 -11 -10z"/>
<path d="M1690 1340 c0 -5 5 -10 11 -10 5 0 7 5 4 10 -3 6 -8 10 -11 10 -2 0
-4 -4 -4 -10z"/>
<path d="M1735 1340 c-3 -6 1 -7 9 -4 18 7 21 14 7 14 -6 0 -13 -4 -16 -10z"/>
<path d="M8516 1327 c3 -10 9 -15 12 -12 3 3 0 11 -7 18 -10 9 -11 8 -5 -6z"/>
<path d="M8373 1245 c0 -8 4 -12 9 -9 5 3 6 10 3 15 -9 13 -12 11 -12 -6z"/>
<path d="M1787 1239 c7 -7 15 -10 18 -7 3 3 -2 9 -12 12 -14 6 -15 5 -6 -5z"/>
<path d="M1833 1233 c0 -9 4 -10 14 -2 7 6 13 12 13 14 0 1 -6 2 -13 2 -8 0
-14 -6 -14 -14z"/>
<path d="M1876 1242 c-3 -5 1 -9 9 -9 8 0 12 4 9 9 -3 4 -7 8 -9 8 -2 0 -6 -4
-9 -8z"/>
<path d="M8306 1218 c3 -5 10 -6 15 -3 13 9 11 12 -6 12 -8 0 -12 -4 -9 -9z"/>
<path d="M8330 1200 c0 -5 5 -10 11 -10 5 0 7 5 4 10 -3 6 -8 10 -11 10 -2 0
-4 -4 -4 -10z"/>
<path d="M1986 1142 c-3 -5 1 -9 9 -9 8 0 12 4 9 9 -3 4 -7 8 -9 8 -2 0 -6 -4
-9 -8z"/>
<path d="M8116 1113 c-6 -14 -5 -15 5 -6 7 7 10 15 7 18 -3 3 -9 -2 -12 -12z"/>
<path d="M2073 1073 c0 -9 4 -10 14 -2 7 6 13 12 13 14 0 1 -6 2 -13 2 -8 0
-14 -6 -14 -14z"/>
<path d="M8057 1075 c-4 -8 -3 -16 1 -19 4 -3 9 4 9 15 2 23 -3 25 -10 4z"/>
<path d="M8010 1059 c0 -5 5 -7 10 -4 6 3 10 8 10 11 0 2 -4 4 -10 4 -5 0 -10
-5 -10 -11z"/>
<path d="M8096 1062 c-2 -4 -1 -14 4 -22 7 -11 9 -9 7 8 -1 24 -3 26 -11 14z"/>
<path d="M2250 1040 c0 -5 5 -10 11 -10 5 0 7 5 4 10 -3 6 -8 10 -11 10 -2 0
-4 -4 -4 -10z"/>
<path d="M7890 1039 c0 -5 5 -7 10 -4 6 3 10 8 10 11 0 2 -4 4 -10 4 -5 0 -10
-5 -10 -11z"/>
<path d="M2335 1020 c3 -5 8 -10 11 -10 2 0 4 5 4 10 0 6 -5 10 -11 10 -5 0
-7 -4 -4 -10z"/>
<path d="M2375 1020 c3 -5 8 -10 11 -10 2 0 4 5 4 10 0 6 -5 10 -11 10 -5 0
-7 -4 -4 -10z"/>
<path d="M7747 1019 c7 -7 15 -10 18 -7 3 3 -2 9 -12 12 -14 6 -15 5 -6 -5z"/>
<path d="M7629 1003 c-13 -16 -12 -17 4 -4 9 7 17 15 17 17 0 8 -8 3 -21 -13z"/>
<path d="M2547 999 c7 -7 15 -10 18 -7 3 3 -2 9 -12 12 -14 6 -15 5 -6 -5z"/>
<path d="M2734 998 c-4 -7 -4 -10 1 -6 4 4 15 2 24 -5 14 -11 14 -10 2 6 -16
20 -18 21 -27 5z"/>
<path d="M2795 1001 c-3 -5 -2 -12 3 -15 5 -3 9 1 9 9 0 17 -3 19 -12 6z"/>
<path d="M7585 1000 c-3 -6 1 -7 9 -4 18 7 21 14 7 14 -6 0 -13 -4 -16 -10z"/>
<path d="M4313 985 c0 -8 4 -12 9 -9 5 3 6 10 3 15 -9 13 -12 11 -12 -6z"/>
<path d="M4955 980 c6 -30 16 -40 12 -12 -2 12 -6 24 -10 28 -3 4 -4 -4 -2
-16z"/>
<path d="M6394 986 c1 -8 5 -18 8 -22 4 -3 5 1 4 10 -1 8 -5 18 -8 22 -4 3 -5
-1 -4 -10z"/>
<path d="M6755 991 c-3 -5 -2 -12 3 -15 5 -3 9 1 9 9 0 17 -3 19 -12 6z"/>
<path d="M3227 979 c7 -7 15 -10 18 -7 3 3 -2 9 -12 12 -14 6 -15 5 -6 -5z"/>
<path d="M3876 981 c-3 -5 2 -15 12 -22 15 -12 16 -12 5 2 -7 9 -10 19 -6 22
3 4 4 7 0 7 -3 0 -8 -4 -11 -9z"/>
<path d="M3947 979 c7 -7 15 -10 18 -7 3 3 -2 9 -12 12 -14 6 -15 5 -6 -5z"/>
<path d="M4196 981 c-3 -5 1 -14 9 -21 8 -7 12 -17 8 -23 -4 -6 -1 -7 6 -3 9
6 9 12 -3 25 -9 10 -13 21 -9 24 3 4 4 7 0 7 -3 0 -8 -4 -11 -9z"/>
<path d="M4267 979 c7 -7 15 -10 18 -7 3 3 -2 9 -12 12 -14 6 -15 5 -6 -5z"/>
<path d="M4470 980 c0 -5 5 -10 11 -10 5 0 7 5 4 10 -3 6 -8 10 -11 10 -2 0
-4 -4 -4 -10z"/>
<path d="M4516 981 c-3 -5 2 -15 12 -22 15 -12 16 -12 5 2 -7 9 -10 19 -6 22
3 4 4 7 0 7 -3 0 -8 -4 -11 -9z"/>
<path d="M4587 979 c7 -7 15 -10 18 -7 3 3 -2 9 -12 12 -14 6 -15 5 -6 -5z"/>
<path d="M4835 981 c-3 -5 -2 -12 3 -15 5 -3 9 1 9 9 0 17 -3 19 -12 6z"/>
<path d="M4907 979 c7 -7 15 -10 18 -7 3 3 -2 9 -12 12 -14 6 -15 5 -6 -5z"/>
<path d="M5027 979 c7 -7 15 -10 18 -7 3 3 -2 9 -12 12 -14 6 -15 5 -6 -5z"/>
<path d="M5120 980 c-9 -6 -10 -10 -3 -10 6 0 15 5 18 10 8 12 4 12 -15 0z"/>
<path d="M5316 981 c-3 -5 2 -15 12 -22 15 -12 16 -12 5 2 -7 9 -10 19 -6 22
3 4 4 7 0 7 -3 0 -8 -4 -11 -9z"/>
<path d="M5387 979 c7 -7 15 -10 18 -7 3 3 -2 9 -12 12 -14 6 -15 5 -6 -5z"/>
<path d="M5826 982 c-3 -5 1 -9 9 -9 8 0 12 4 9 9 -3 4 -7 8 -9 8 -2 0 -6 -4
-9 -8z"/>
<path d="M5986 982 c-3 -5 1 -9 9 -9 8 0 12 4 9 9 -3 4 -7 8 -9 8 -2 0 -6 -4
-9 -8z"/>
<path d="M6080 980 c-9 -6 -10 -10 -3 -10 6 0 15 5 18 10 8 12 4 12 -15 0z"/>
<path d="M6276 981 c-3 -5 2 -15 12 -22 15 -12 16 -12 5 2 -7 9 -10 19 -6 22
3 4 4 7 0 7 -3 0 -8 -4 -11 -9z"/>
<path d="M6347 979 c7 -7 15 -10 18 -7 3 3 -2 9 -12 12 -14 6 -15 5 -6 -5z"/>
<path d="M6550 978 c0 -4 4 -8 9 -8 6 0 12 4 15 8 3 5 -1 9 -9 9 -8 0 -15 -4
-15 -9z"/>
<path d="M7067 979 c7 -7 15 -10 18 -7 3 3 -2 9 -12 12 -14 6 -15 5 -6 -5z"/>
<path d="M7734 982 c4 -3 14 -7 22 -8 9 -1 13 0 10 4 -4 3 -14 7 -22 8 -9 1
-13 0 -10 -4z"/>
<path d="M2193 965 c0 -8 4 -12 9 -9 5 3 6 10 3 15 -9 13 -12 11 -12 -6z"/>
<path d="M3114 960 c0 -13 4 -16 10 -10 7 7 7 13 0 20 -6 6 -10 3 -10 -10z"/>
<path d="M5150 976 c0 -2 8 -10 18 -17 15 -13 16 -12 3 4 -13 16 -21 21 -21
13z"/>
<path d="M6656 967 c3 -10 9 -15 12 -12 3 3 0 11 -7 18 -10 9 -11 8 -5 -6z"/>
<path d="M7215 971 c-3 -5 -2 -12 3 -15 5 -3 9 1 9 9 0 17 -3 19 -12 6z"/>
<path d="M2946 962 c-3 -5 1 -9 9 -9 8 0 12 4 9 9 -3 4 -7 8 -9 8 -2 0 -6 -4
-9 -8z"/>
<path d="M3080 960 c-9 -6 -10 -10 -3 -10 6 0 15 5 18 10 8 12 4 12 -15 0z"/>
<path d="M3540 966 c0 -2 8 -10 18 -17 15 -13 16 -12 3 4 -13 16 -21 21 -21
13z"/>
<path d="M5196 958 c3 -5 10 -6 15 -3 13 9 11 12 -6 12 -8 0 -12 -4 -9 -9z"/>
<path d="M5460 966 c0 -2 8 -10 18 -17 15 -13 16 -12 3 4 -13 16 -21 21 -21
13z"/>
<path d="M5756 958 c3 -5 10 -6 15 -3 13 9 11 12 -6 12 -8 0 -12 -4 -9 -9z"/>
<path d="M5790 960 c0 -5 5 -10 11 -10 5 0 7 5 4 10 -3 6 -8 10 -11 10 -2 0
-4 -4 -4 -10z"/>
<path d="M6176 958 c3 -5 10 -6 15 -3 13 9 11 12 -6 12 -8 0 -12 -4 -9 -9z"/>
<path d="M6690 959 c0 -5 5 -7 10 -4 6 3 10 8 10 11 0 2 -4 4 -10 4 -5 0 -10
-5 -10 -11z"/>
<path d="M7253 951 c0 -11 5 -18 9 -15 4 3 5 11 1 19 -7 21 -12 19 -10 -4z"/>
<path d="M7395 961 c-3 -5 -2 -12 3 -15 5 -3 9 1 9 9 0 17 -3 19 -12 6z"/>
<path d="M7567 959 c7 -7 15 -10 18 -7 3 3 -2 9 -12 12 -14 6 -15 5 -6 -5z"/>
<path d="M2896 942 c-2 -4 -1 -14 4 -22 7 -11 9 -9 7 8 -1 24 -3 26 -11 14z"/>
<path d="M3450 939 c0 -5 5 -7 10 -4 6 3 10 8 10 11 0 2 -4 4 -10 4 -5 0 -10
-5 -10 -11z"/>
<path d="M4055 940 c3 -5 8 -10 11 -10 2 0 4 5 4 10 0 6 -5 10 -11 10 -5 0 -7
-4 -4 -10z"/>
<path d="M4090 939 c0 -5 5 -7 10 -4 6 3 10 8 10 11 0 2 -4 4 -10 4 -5 0 -10
-5 -10 -11z"/>
<path d="M4130 939 c0 -5 5 -7 10 -4 6 3 10 8 10 11 0 2 -4 4 -10 4 -5 0 -10
-5 -10 -11z"/>
<path d="M4250 939 c0 -5 5 -7 10 -4 6 3 10 8 10 11 0 2 -4 4 -10 4 -5 0 -10
-5 -10 -11z"/>
<path d="M4695 940 c3 -5 8 -10 11 -10 2 0 4 5 4 10 0 6 -5 10 -11 10 -5 0 -7
-4 -4 -10z"/>
<path d="M4730 939 c0 -5 5 -7 10 -4 6 3 10 8 10 11 0 2 -4 4 -10 4 -5 0 -10
-5 -10 -11z"/>
<path d="M4770 939 c0 -5 5 -7 10 -4 6 3 10 8 10 11 0 2 -4 4 -10 4 -5 0 -10
-5 -10 -11z"/>
<path d="M4850 939 c0 -5 5 -7 10 -4 6 3 10 8 10 11 0 2 -4 4 -10 4 -5 0 -10
-5 -10 -11z"/>
<path d="M4890 939 c0 -5 5 -7 10 -4 6 3 10 8 10 11 0 2 -4 4 -10 4 -5 0 -10
-5 -10 -11z"/>
<path d="M6210 939 c0 -5 5 -7 10 -4 6 3 10 8 10 11 0 2 -4 4 -10 4 -5 0 -10
-5 -10 -11z"/>
<path d="M6250 939 c0 -5 5 -7 10 -4 6 3 10 8 10 11 0 2 -4 4 -10 4 -5 0 -10
-5 -10 -11z"/>
<path d="M6415 940 c3 -5 8 -10 11 -10 2 0 4 5 4 10 0 6 -5 10 -11 10 -5 0 -7
-4 -4 -10z"/>
<path d="M6450 939 c0 -5 5 -7 10 -4 6 3 10 8 10 11 0 2 -4 4 -10 4 -5 0 -10
-5 -10 -11z"/>
<path d="M6490 939 c0 -5 5 -7 10 -4 6 3 10 8 10 11 0 2 -4 4 -10 4 -5 0 -10
-5 -10 -11z"/>
<path d="M7010 940 c0 -5 5 -10 11 -10 5 0 7 5 4 10 -3 6 -8 10 -11 10 -2 0
-4 -4 -4 -10z"/>
<path d="M7170 939 c0 -5 5 -7 10 -4 6 3 10 8 10 11 0 2 -4 4 -10 4 -5 0 -10
-5 -10 -11z"/>
<path d="M7475 940 c3 -5 8 -10 11 -10 2 0 4 5 4 10 0 6 -5 10 -11 10 -5 0 -7
-4 -4 -10z"/>
<path d="M3626 918 c3 -5 10 -6 15 -3 13 9 11 12 -6 12 -8 0 -12 -4 -9 -9z"/>
<path d="M5546 918 c3 -5 10 -6 15 -3 13 9 11 12 -6 12 -8 0 -12 -4 -9 -9z"/>
<path d="M6310 879 c0 -5 5 -7 10 -4 6 3 10 8 10 11 0 2 -4 4 -10 4 -5 0 -10
-5 -10 -11z"/>
<path d="M7000 886 c0 -2 8 -10 18 -17 15 -13 16 -12 3 4 -13 16 -21 21 -21
13z"/>
<path d="M3310 840 c0 -5 5 -10 11 -10 5 0 7 5 4 10 -3 6 -8 10 -11 10 -2 0
-4 -4 -4 -10z"/>
<path d="M6353 835 c0 -8 4 -12 9 -9 5 3 6 10 3 15 -9 13 -12 11 -12 -6z"/>
</g>
</svg>
